<svg width="171" height="240" viewBox="0 0 171 240" fill="none" xmlns="http://www.w3.org/2000/svg">
<path fill-rule="evenodd" clip-rule="evenodd" d="M123.477 58.8514C123.477 58.8514 109.828 49.7993 110.258 30.6079C110.677 11.4136 122.903 0 122.903 0C122.903 0 138.603 10.9924 138.179 29.7253C137.763 48.4252 123.477 58.8514 123.477 58.8514ZM106.771 99.9891C106.771 99.9891 90.1649 94.0737 84.522 76.2419C78.89 58.413 90.8926 43.3663 90.8926 43.3663C90.8926 43.3663 105.789 50.794 111.588 69.0923C117.363 87.3958 106.771 99.9891 106.771 99.9891ZM136.119 98.2741C136.119 98.2741 129.772 83.1081 140.745 67.3495C151.709 51.5769 168.172 48.88 168.172 48.88C168.172 48.88 175.124 66.7789 164.42 82.1494C153.749 97.5288 136.119 98.2741 136.119 98.2741ZM90.8605 149.679C90.8605 149.679 102.995 138.559 99.6485 119.655C96.299 100.762 82.4975 91.4451 82.4975 91.4451C82.4975 91.4451 68.6592 104.798 71.888 123.222C75.1555 141.634 90.8605 149.679 90.8605 149.679ZM57.6466 122.94C57.6466 122.94 70.5002 133.513 72.0637 152.671C73.6192 171.816 60.5044 181.73 60.5044 181.73C60.5044 181.73 45.6573 172.239 44.134 153.587C42.6108 134.935 57.6466 122.94 57.6466 122.94ZM13.1509 179.857C9.25391 198.18 20.7539 211.563 20.7539 211.563C20.7539 211.563 36.1596 205.847 40.1617 187.045C44.1528 168.24 34.9051 154.386 34.9051 154.386C34.9051 154.386 17.0588 161.536 13.1509 179.857ZM139.342 108.371C124.257 120.199 125.838 136.579 125.838 136.579C125.838 136.579 142.879 141.089 157.618 129.546C172.353 118.013 170.964 98.8188 170.964 98.8188C170.964 98.8188 154.463 96.5402 139.342 108.371ZM102.848 172.534C102.848 172.534 104.93 156.202 122.27 148.007C139.614 139.838 155.177 145.746 155.177 145.746C155.177 145.746 152.271 164.794 135.371 172.752C118.471 180.71 102.848 172.534 102.848 172.534ZM101.036 182.452C82.0577 184.983 75.1525 199.942 75.1525 199.942C75.1525 199.942 87.543 212.502 106.05 210.022C124.543 207.55 133.057 190.273 133.057 190.273C133.057 190.273 120.04 179.916 101.036 182.452ZM63.2485 211.217C82.3833 210.992 94.1098 222.832 94.1098 222.832C94.1098 222.832 83.6264 238.958 64.9615 239.226C46.3114 239.439 35.5184 225.478 35.5184 225.478C35.5184 225.478 44.1216 211.456 63.2485 211.217ZM127.733 67.3117L118.75 69.0961C119.47 72.8031 134.634 160.96 0.683594 225.3L4.58815 233.55C145.312 165.986 127.916 68.2924 127.733 67.3117Z" fill="url(#paint0_linear)"/>
<defs>
<linearGradient id="paint0_linear" x1="88.0416" y1="0" x2="88.0416" y2="239.228" gradientUnits="userSpaceOnUse">
<stop stop-color="#DCDDE0"/>
<stop offset="1" stop-color="#DCDDE0" stop-opacity="0"/>
</linearGradient>
</defs>
</svg>
