<svg width="662" height="466" viewBox="0 0 662 466" fill="none" xmlns="http://www.w3.org/2000/svg">
<g clip-path="url(#clip0)">
<path d="M338.097 465.012C358.007 465.012 374.148 448.89 374.148 429.001C374.148 409.113 358.007 392.99 338.097 392.99C318.186 392.99 302.045 409.113 302.045 429.001C302.045 448.89 318.186 465.012 338.097 465.012Z" fill="white"/>
<path d="M457.225 363.242C467.613 363.242 476.034 354.83 476.034 344.454C476.034 334.077 467.613 325.665 457.225 325.665C446.836 325.665 438.415 334.077 438.415 344.454C438.415 354.83 446.836 363.242 457.225 363.242Z" fill="#F2F2F2"/>
<path d="M334.235 53.2364C277.891 53.6339 231.757 99.3696 230.957 155.646C230.949 156.165 230.946 159.819 230.946 164.597C230.947 171.603 233.733 178.322 238.693 183.276C243.652 188.231 250.379 191.014 257.393 191.015H257.393C260.87 191.014 264.312 190.329 267.524 188.999C270.736 187.669 273.654 185.719 276.111 183.262C278.568 180.805 280.517 177.888 281.845 174.679C283.173 171.469 283.855 168.03 283.852 164.557C283.85 161.306 283.848 159.056 283.848 158.918C283.846 150.221 286.111 141.673 290.42 134.115C294.728 126.557 300.933 120.25 308.422 115.813C315.911 111.377 324.428 108.964 333.134 108.813C341.84 108.661 350.435 110.776 358.075 114.949C365.714 119.123 372.134 125.21 376.704 132.614C381.273 140.017 383.835 148.481 384.136 157.174C384.438 165.866 382.469 174.487 378.423 182.188C374.377 189.89 368.394 196.407 361.062 201.098L361.071 201.109C361.071 201.109 323.429 225.314 311.953 258.519L311.963 258.522C309.945 265.324 308.923 272.382 308.927 279.477C308.927 282.393 309.099 307.911 309.431 328.623C309.547 335.769 312.471 342.583 317.572 347.595C322.673 352.607 329.542 355.415 336.697 355.413H336.697C340.293 355.413 343.852 354.703 347.172 353.323C350.491 351.944 353.505 349.922 356.039 347.375C358.574 344.828 360.579 341.805 361.939 338.481C363.3 335.157 363.989 331.597 363.966 328.005C363.851 309.038 363.789 286.952 363.789 285.348C363.789 264.959 383.48 244.644 399.655 231.397C418.281 216.141 431.685 195.352 437.068 171.901C438.26 167.073 438.916 162.128 439.027 157.157C439.027 143.446 436.311 129.871 431.035 117.214C425.76 104.556 418.029 93.0669 408.288 83.4071C398.547 73.7474 386.989 66.1084 374.28 60.9303C361.57 55.7522 347.961 53.1373 334.235 53.2364V53.2364Z" fill="white"/>
<path d="M661.067 466H0.933409C0.686383 465.999 0.449725 465.901 0.275304 465.726C0.100883 465.551 0.00292969 465.315 0.00292969 465.068C0.00292969 464.821 0.100883 464.584 0.275304 464.41C0.449725 464.235 0.686383 464.136 0.933409 464.136H661.067C661.315 464.136 661.552 464.234 661.727 464.409C661.902 464.584 662 464.821 662 465.068C662 465.315 661.902 465.552 661.727 465.727C661.552 465.902 661.315 466 661.067 466V466Z" fill="#3F3D56"/>
<path d="M492.536 213.715C505.522 213.715 516.048 203.2 516.048 190.229C516.048 177.258 505.522 166.744 492.536 166.744C479.551 166.744 469.024 177.258 469.024 190.229C469.024 203.2 479.551 213.715 492.536 213.715Z" fill="#2F2E41"/>
<path d="M449.088 455.719H439.481L434.909 418.7H449.091L449.088 455.719Z" fill="#A0616A"/>
<path d="M432.618 452.977H451.148V464.631H420.95C420.95 463.1 421.252 461.585 421.838 460.171C422.425 458.757 423.284 457.472 424.367 456.39C425.451 455.308 426.737 454.449 428.153 453.864C429.568 453.278 431.085 452.977 432.618 452.977Z" fill="#2F2E41"/>
<path d="M523.544 455.719H513.936L509.364 418.7H523.546L523.544 455.719Z" fill="#A0616A"/>
<path d="M507.072 452.977H525.602V464.631H495.404C495.404 463.1 495.706 461.585 496.292 460.171C496.879 458.757 497.738 457.472 498.822 456.39C499.905 455.308 501.191 454.449 502.607 453.864C504.022 453.278 505.539 452.977 507.072 452.977V452.977Z" fill="#2F2E41"/>
<path d="M488.963 213.852C499.594 213.852 508.212 205.243 508.212 194.624C508.212 184.005 499.594 175.397 488.963 175.397C478.332 175.397 469.714 184.005 469.714 194.624C469.714 205.243 478.332 213.852 488.963 213.852Z" fill="#A0616A"/>
<path d="M500.436 275.881L509.049 256.114C511.141 251.477 511.74 246.305 510.765 241.313C509.789 236.321 507.287 231.755 503.602 228.244C502.846 227.497 502.042 226.799 501.196 226.154C496.946 222.833 491.709 221.023 486.313 221.011C482.685 221.025 479.103 221.821 475.811 223.344C475.529 223.469 475.255 223.602 474.972 223.735C474.432 223.993 473.899 224.275 473.382 224.565C470.008 226.5 467.136 229.2 464.999 232.447C462.861 235.695 461.518 239.398 461.077 243.259L457.276 275.074C456.32 277.572 422.212 367.756 434.14 436.607C434.267 437.343 434.626 438.018 435.165 438.535C435.703 439.052 436.393 439.383 437.134 439.48L449.227 441.124C450.11 441.245 451.006 441.027 451.735 440.514C452.463 440.002 452.97 439.232 453.153 438.361L473.444 341.75C473.571 341.149 473.895 340.609 474.365 340.214C474.835 339.82 475.424 339.594 476.038 339.573C476.652 339.552 477.255 339.738 477.751 340.1C478.247 340.462 478.607 340.979 478.774 341.57L507.442 443.168C507.647 443.906 508.088 444.557 508.698 445.021C509.308 445.484 510.054 445.736 510.82 445.735C511.049 445.734 511.277 445.713 511.502 445.673L526.275 442.831C527.134 442.671 527.902 442.196 528.429 441.499C528.955 440.802 529.202 439.935 529.121 439.066C526.95 414.883 515.413 293.753 500.436 275.881Z" fill="#2F2E41"/>
<path d="M414.156 210.625C414.022 211.769 414.141 212.927 414.504 214.019C414.867 215.111 415.466 216.111 416.257 216.947C417.049 217.783 418.015 218.436 419.086 218.859C420.157 219.282 421.309 219.465 422.459 219.396L433.219 245.224L441.358 233.173L429.892 210.493C429.647 208.571 428.705 206.806 427.244 205.531C425.783 204.256 423.905 203.561 421.965 203.578C420.026 203.594 418.159 204.32 416.72 205.619C415.28 206.918 414.368 208.699 414.156 210.625L414.156 210.625Z" fill="#A0616A"/>
<path d="M487.896 301.887C489.04 301.751 490.14 301.365 491.118 300.758C492.097 300.151 492.931 299.337 493.56 298.373C494.19 297.409 494.6 296.319 494.763 295.18C494.925 294.04 494.835 292.879 494.5 291.778L517.138 275.308L503.509 270.21L484.1 286.632C482.286 287.318 480.787 288.644 479.886 290.36C478.986 292.076 478.747 294.063 479.214 295.943C479.682 297.824 480.824 299.467 482.424 300.563C484.024 301.658 485.971 302.13 487.896 301.887V301.887Z" fill="#A0616A"/>
<path d="M450.991 262.443C450.123 262.442 449.257 262.357 448.406 262.189C446.347 261.797 444.416 260.906 442.783 259.593C441.15 258.28 439.865 256.586 439.042 254.661L423.968 236.3C423.649 235.912 423.417 235.46 423.287 234.975C423.158 234.49 423.133 233.983 423.216 233.488C423.298 232.993 423.486 232.521 423.766 232.104C424.045 231.687 424.411 231.335 424.839 231.07L435.563 224.439C435.959 224.194 436.4 224.03 436.86 223.956C437.32 223.882 437.79 223.9 438.242 224.008C438.695 224.117 439.122 224.314 439.498 224.588C439.875 224.862 440.193 225.208 440.435 225.606L451.059 243.09L471.406 228.07C473.026 227.221 474.898 226.983 476.679 227.399C478.46 227.815 480.032 228.858 481.107 230.336C482.183 231.814 482.69 233.629 482.536 235.449C482.382 237.27 481.578 238.975 480.27 240.252L459.962 258.756C457.576 261.119 454.351 262.444 450.991 262.443Z" fill="#2F2E41"/>
<path d="M505.97 290.056C505.943 290.056 505.915 290.056 505.887 290.055C505.393 290.043 504.906 289.928 504.459 289.716C504.012 289.504 503.615 289.201 503.292 288.826L493.757 277.715C493.433 277.336 493.192 276.894 493.051 276.415C492.911 275.937 492.873 275.435 492.941 274.941C493.009 274.447 493.182 273.973 493.447 273.551C493.712 273.129 494.064 272.767 494.479 272.491L512.333 260.602L496.158 241.177C495.217 239.61 494.872 237.757 495.186 235.957C495.5 234.157 496.451 232.53 497.867 231.373C499.282 230.216 501.068 229.606 502.896 229.655C504.725 229.704 506.474 230.409 507.826 231.64L527.485 250.83C529.032 252.241 530.213 254.007 530.927 255.975C531.64 257.944 531.865 260.055 531.582 262.129C531.299 264.203 530.516 266.178 529.3 267.883C528.085 269.588 526.474 270.974 524.604 271.92L508.537 288.95C508.207 289.299 507.809 289.577 507.368 289.768C506.926 289.958 506.451 290.056 505.97 290.056Z" fill="#2F2E41"/>
<path d="M484.069 249.114C483.916 249.114 483.763 249.104 483.611 249.085C482.947 249.004 482.32 248.735 481.805 248.309C481.289 247.883 480.907 247.319 480.703 246.682L473.538 224.739C473.358 224.185 473.386 223.584 473.616 223.048C473.845 222.512 474.262 222.077 474.787 221.824L475.02 221.714C475.231 221.614 475.439 221.515 475.653 221.42C478.994 219.872 482.631 219.065 486.314 219.053C491.095 219.062 495.769 220.465 499.764 223.09C500.299 223.446 500.673 223.998 500.805 224.627C500.937 225.256 500.817 225.911 500.47 226.452L487.029 247.486C486.714 247.985 486.277 248.396 485.759 248.681C485.241 248.966 484.66 249.115 484.069 249.114V249.114Z" fill="#E6E6E6"/>
<path d="M511.073 179.744C515.323 179.744 518.767 176.304 518.767 172.059C518.767 167.815 515.323 164.375 511.073 164.375C506.824 164.375 503.38 167.815 503.38 172.059C503.38 176.304 506.824 179.744 511.073 179.744Z" fill="#2F2E41"/>
<path d="M484.698 163.612C479.294 163.612 474.111 165.757 470.29 169.574C466.468 173.391 464.321 178.568 464.321 183.966V192.578H474.925L479.996 183.966L481.517 192.578H513.696L505.075 183.966C505.075 178.568 502.928 173.391 499.107 169.574C495.286 165.757 490.103 163.612 484.698 163.612V163.612Z" fill="#2F2E41"/>
<path d="M515.027 166.795C515.878 164.138 517.64 161.865 520.002 160.377C522.364 158.889 525.176 158.28 527.944 158.657C532.847 159.476 536.723 163.413 539.033 167.81C541.343 172.207 542.41 177.128 543.962 181.844C545.515 186.561 547.717 191.304 551.638 194.358C555.558 197.411 561.573 198.239 565.423 195.098C564.983 198.372 563.524 201.424 561.252 203.824C558.981 206.224 556.011 207.85 552.763 208.471C549.516 209.093 546.155 208.679 543.156 207.288C540.157 205.897 537.671 203.599 536.051 200.72C534.02 197.11 533.495 192.878 532.893 188.781C532.29 184.683 531.508 180.444 529.082 177.085C526.657 173.726 522.117 171.532 518.264 173.062L515.027 166.795Z" fill="#2F2E41"/>
<path d="M264.86 178.52C257.846 178.519 251.119 175.735 246.16 170.781C241.2 165.827 238.414 159.108 238.414 152.102C238.413 147.323 238.417 143.67 238.424 143.15C238.647 126.784 242.773 110.706 250.461 96.2507C237.83 113.523 230.885 134.289 230.587 155.676C230.579 156.195 230.576 159.849 230.576 164.627C230.577 171.633 233.363 178.352 238.323 183.306C243.282 188.261 250.009 191.044 257.023 191.045V191.045C262.786 191.043 268.392 189.162 272.987 185.687C277.583 182.213 280.917 177.335 282.484 171.794C277.642 176.132 271.364 178.527 264.86 178.52V178.52Z" fill="#BABABA"/>
<path d="M336.027 108.902C344.136 109.288 352.029 111.635 359.03 115.74C366.031 119.846 371.929 125.587 376.219 132.471C380.509 139.355 383.063 147.176 383.66 155.263C384.258 163.349 382.881 171.46 379.649 178.898C384.324 173.414 387.76 166.988 389.723 160.057C391.686 153.126 392.13 145.854 391.024 138.736C389.918 131.619 387.289 124.823 383.316 118.812C379.342 112.801 374.118 107.717 367.999 103.906C361.88 100.095 355.011 97.6464 347.859 96.7276C340.707 95.8088 333.44 96.4413 326.555 98.5819C319.67 100.722 313.328 104.321 307.961 109.132C302.594 113.942 298.329 119.853 295.456 126.459C300.421 120.625 306.662 116.008 313.696 112.963C320.73 109.919 328.37 108.53 336.027 108.902V108.902Z" fill="#BABABA"/>
<path d="M344.165 342.918C337.009 342.919 330.14 340.111 325.04 335.099C319.939 330.087 317.015 323.273 316.899 316.127C316.567 295.416 316.395 269.898 316.395 266.982C316.39 259.887 317.413 252.829 319.431 246.026L319.421 246.024C320.613 242.61 322.052 239.286 323.727 236.081C318.585 242.926 314.492 250.499 311.584 258.55L311.593 258.552C309.576 265.354 308.553 272.412 308.558 279.507C308.558 282.424 308.729 307.941 309.061 328.653C309.177 335.799 312.101 342.613 317.202 347.625C322.303 352.637 329.172 355.445 336.327 355.443V355.443C342.227 355.442 347.967 353.531 352.687 349.995C357.407 346.46 360.852 341.491 362.505 335.834C357.492 340.401 350.949 342.927 344.165 342.918V342.918Z" fill="#BABABA"/>
<path d="M99.1742 456.076L108.782 456.075L113.354 419.056L99.1719 419.057L99.1742 456.076Z" fill="#FFB8B8"/>
<path d="M127.313 464.987L97.1157 464.988L97.1152 453.334L115.646 453.333C118.74 453.333 121.708 454.561 123.896 456.746C126.084 458.932 127.313 461.896 127.313 464.987V464.987L127.313 464.987Z" fill="#2F2E41"/>
<path d="M64.6898 456.076L74.2976 456.075L78.8692 419.056L64.6875 419.057L64.6898 456.076Z" fill="#FFB8B8"/>
<path d="M92.8291 464.987L62.6313 464.988L62.6308 453.334L81.1613 453.333C84.2556 453.333 87.2233 454.561 89.4114 456.746C91.5996 458.932 92.829 461.896 92.8291 464.987V464.987L92.8291 464.987Z" fill="#2F2E41"/>
<path d="M73.0862 444.691L63.7009 444.198C63.217 444.172 62.7429 444.051 62.3062 443.841C61.8694 443.632 61.4787 443.338 61.1566 442.976C60.8345 442.614 60.5874 442.192 60.4298 441.735C60.2721 441.277 60.2069 440.792 60.238 440.309L71.4553 316.254L123.112 330.178L128.089 328.822L112.525 438.643C112.393 439.47 111.982 440.226 111.361 440.787C110.74 441.349 109.946 441.682 109.11 441.731L98.9925 442.202C98.4866 442.23 97.9804 442.153 97.5058 441.976C97.0313 441.799 96.5987 441.525 96.2355 441.172C95.8723 440.819 95.5862 440.395 95.3955 439.926C95.2048 439.457 95.1135 438.954 95.1275 438.448L96.9606 372.535C96.9692 372.23 96.8632 371.933 96.6635 371.703C96.4638 371.472 96.1848 371.325 95.8816 371.289C95.5784 371.254 95.273 371.333 95.0254 371.512C94.7779 371.69 94.6062 371.955 94.5442 372.253L76.8656 441.78C76.6988 442.605 76.2506 443.346 75.5976 443.878C74.9446 444.41 74.1272 444.699 73.2846 444.696C73.2189 444.696 73.1527 444.695 73.0862 444.691Z" fill="#2F2E41"/>
<path d="M100.9 214.751C111.531 214.751 120.149 206.143 120.149 195.523C120.149 184.904 111.531 176.296 100.9 176.296C90.2686 176.296 81.6504 184.904 81.6504 195.523C81.6504 206.143 90.2686 214.751 100.9 214.751Z" fill="#FFB8B8"/>
<path d="M68.8501 252.013L70.9667 297.628L71.7318 314.223C71.7623 314.945 72.0078 315.642 72.4371 316.225C72.8663 316.807 73.4596 317.248 74.1412 317.492L123.78 335.453C124.181 335.602 124.606 335.676 125.033 335.672C125.522 335.675 126.007 335.579 126.458 335.39C126.909 335.201 127.317 334.924 127.658 334.574C127.999 334.224 128.266 333.809 128.443 333.354C128.62 332.898 128.704 332.412 128.688 331.924L126.653 249.907C126.52 243.178 124.04 236.707 119.641 231.608C115.243 226.509 109.202 223.104 102.559 221.977C102.078 221.904 101.59 221.831 101.101 221.766C96.9823 221.255 92.801 221.652 88.852 222.929C84.9029 224.206 81.282 226.332 78.2439 229.157C75.098 232.047 72.626 235.592 71.0028 239.542C69.3796 243.491 68.6447 247.749 68.8501 252.013L68.8501 252.013Z" fill="#CCCCCC"/>
<path d="M147.493 326.351C146.319 325.987 145.246 325.354 144.361 324.503C143.475 323.651 142.801 322.605 142.392 321.447C141.983 320.289 141.851 319.051 142.006 317.833C142.161 316.615 142.599 315.45 143.285 314.431L126.452 292.073L140.978 291.175L154.736 312.544C156.209 313.682 157.234 315.301 157.631 317.118C158.028 318.934 157.772 320.833 156.908 322.48C156.044 324.127 154.627 325.418 152.905 326.126C151.184 326.834 149.267 326.913 147.493 326.351H147.493Z" fill="#FFB8B8"/>
<path d="M135.657 310.385C135.211 310.204 134.805 309.937 134.463 309.598C134.122 309.26 133.85 308.857 133.665 308.413L108.305 248.06C107.808 246.878 107.548 245.61 107.541 244.328C107.534 243.047 107.781 241.776 108.266 240.589C108.751 239.402 109.465 238.322 110.368 237.412C111.271 236.501 112.345 235.776 113.529 235.28C114.712 234.784 115.982 234.526 117.265 234.52C118.548 234.514 119.82 234.761 121.008 235.247C122.196 235.732 123.276 236.447 124.188 237.35C125.099 238.252 125.823 239.326 126.319 240.508L151.679 300.862C152.054 301.757 152.058 302.764 151.691 303.662C151.323 304.559 150.614 305.275 149.719 305.652L138.461 310.371C138.017 310.559 137.541 310.656 137.06 310.659C136.579 310.661 136.102 310.568 135.657 310.385L135.657 310.385Z" fill="#CCCCCC"/>
<path d="M94.7107 308.256L119.069 261.67C119.538 260.774 120.345 260.1 121.311 259.798C122.277 259.495 123.323 259.587 124.221 260.054L159.577 278.498C160.474 278.967 161.148 279.773 161.451 280.738C161.754 281.703 161.662 282.748 161.194 283.645L136.836 330.232C136.367 331.128 135.56 331.801 134.594 332.104C133.628 332.407 132.581 332.314 131.683 331.847L96.3279 313.403C95.4309 312.934 94.7569 312.129 94.4537 311.164C94.1506 310.199 94.243 309.153 94.7107 308.256Z" fill="#3F3D56"/>
<path d="M111.046 286.972C110.613 285.823 109.917 284.79 109.014 283.958C108.11 283.125 107.025 282.515 105.843 282.175C104.662 281.836 103.417 281.777 102.209 282.004C101.001 282.231 99.8627 282.736 98.8849 283.48L75.5465 268.016L75.5068 282.553L97.6754 295.009C98.8991 296.411 100.578 297.337 102.417 297.626C104.256 297.915 106.138 297.548 107.733 296.589C109.329 295.63 110.535 294.14 111.141 292.382C111.746 290.623 111.713 288.708 111.046 286.972V286.972Z" fill="#FFB8B8"/>
<path d="M81.5381 290.241L62.4646 275.149C60.4012 274.457 58.5368 273.275 57.0313 271.705C55.5259 270.135 54.4244 268.223 53.8214 266.134C53.2184 264.045 53.1319 261.841 53.5694 259.711C54.0069 257.582 54.9553 255.59 56.3331 253.907L73.6514 231.236C74.8548 229.767 76.5474 228.779 78.4196 228.454C80.2918 228.129 82.2186 228.488 83.8478 229.465C85.477 230.442 86.6998 231.972 87.2926 233.775C87.8854 235.579 87.8087 237.535 87.0764 239.287L73.3737 261.676L93.511 271.217C93.9792 271.439 94.395 271.757 94.7309 272.151C95.0668 272.546 95.3151 273.007 95.4594 273.504C95.6037 274.001 95.6408 274.523 95.5681 275.036C95.4954 275.548 95.3147 276.039 95.0378 276.477L86.9091 289.327C86.6343 289.761 86.2714 290.132 85.8439 290.416C85.4163 290.701 84.9337 290.893 84.4273 290.979C84.4072 290.983 84.3869 290.986 84.3667 290.989C83.869 291.064 83.3613 291.037 82.8747 290.908C82.3882 290.779 81.9333 290.552 81.5381 290.241V290.241Z" fill="#CCCCCC"/>
<path d="M86.3543 208.399C86.2718 208.157 86.2456 207.9 86.2778 207.647C86.31 207.394 86.3997 207.152 86.5402 206.939C86.6806 206.726 86.868 206.548 87.088 206.418C87.3079 206.289 87.5546 206.211 87.8092 206.192C88.3306 206.22 88.8408 206.354 89.309 206.584C89.7773 206.815 90.1938 207.138 90.5336 207.534C91.2302 208.337 92.0412 209.032 92.9405 209.599C93.8717 210.068 95.1346 210.001 95.6655 209.107C96.1639 208.268 95.8224 207.144 95.5206 206.169C94.7527 203.688 94.323 201.115 94.2432 198.52C94.1563 195.623 94.5654 192.6 96.171 190.341C98.243 187.425 101.948 186.318 105.455 186.398C108.961 186.478 112.411 187.56 115.884 188.243C117.083 188.479 118.492 188.6 119.294 187.671C120.147 186.684 119.834 185.087 119.471 183.754C118.53 180.296 117.531 176.721 115.345 173.928C112.98 171.026 109.603 169.126 105.892 168.612C102.33 168.171 98.7139 168.581 95.3412 169.809C89.8464 171.538 85.0113 174.903 81.4826 179.452C77.8451 184.29 76.2732 190.37 77.1109 196.362C77.9292 201.581 80.6978 206.296 84.8587 209.556L86.3543 208.399Z" fill="#2F2E41"/>
<path d="M330.154 456.229C325.032 454.001 320.499 450.614 316.913 446.337C313.326 442.059 310.784 437.007 309.486 431.58C308.189 426.153 308.172 420.499 309.437 415.064C310.702 409.629 313.214 404.563 316.775 400.264C312.646 403.275 309.206 407.129 306.682 411.57C304.159 416.01 302.609 420.937 302.137 426.021C301.665 431.106 302.281 436.233 303.945 441.061C305.608 445.89 308.28 450.31 311.785 454.028C315.289 457.746 319.544 460.677 324.269 462.627C328.994 464.576 334.08 465.5 339.19 465.336C344.299 465.172 349.316 463.925 353.906 461.676C358.496 459.428 362.554 456.23 365.812 452.295C360.731 456.005 354.765 458.32 348.508 459.011C342.252 459.701 335.924 458.742 330.154 456.229V456.229Z" fill="#BABABA"/>
</g>
<defs>
<clipPath id="clip0">
<rect width="662" height="466" fill="white"/>
</clipPath>
</defs>
</svg>
